<svg width="1024" height="1024" viewBox="0 0 1024 1024" fill="none" xmlns="http://www.w3.org/2000/svg">
<path d="M394.15 626.618C401.106 619.445 404.584 610.968 404.584 601.186C404.584 591.405 401.106 583.037 394.15 576.081C387.195 569.126 378.718 565.648 368.719 565.648C358.72 565.648 350.243 569.126 343.288 576.081C336.332 583.037 332.854 591.405 332.854 601.186C332.854 610.968 336.332 619.445 343.288 626.618C350.243 633.791 358.72 637.377 368.719 637.377C378.718 637.377 387.195 633.791 394.15 626.618ZM326.334 726.06C300.25 721.713 278.514 708.454 261.125 686.283C243.736 664.113 235.042 638.899 235.042 610.642V370.023C235.042 328.724 253.3 298.294 289.817 278.731C326.334 259.169 383.282 249.388 460.663 249.388C485.442 249.388 507.287 250.366 526.197 252.322C545.108 254.278 561.736 256.56 576.082 259.169L579.994 327.638L424.146 388.933H296.99V490.006H427.407V535.652C427.407 546.52 431.102 555.649 438.492 563.04C445.882 570.43 454.794 574.125 465.227 574.125H498.484L460.011 786.704H285.904C278.514 786.704 273.624 783.118 271.233 775.945C268.842 768.772 270.907 763.012 277.427 758.665L326.334 726.06ZM593.688 615.206L549.346 793.877C548.042 799.094 545.108 803.441 540.543 806.919C535.978 810.397 530.653 812.135 524.567 812.135C516.307 812.135 509.786 809.201 505.004 803.332C500.223 797.464 498.484 790.834 499.788 783.444L564.344 430.667L518.046 452.838V508.917C518.046 516.307 515.547 522.502 510.547 527.501C505.548 532.5 499.353 535 491.963 535C484.573 535 478.486 532.5 473.704 527.501C468.923 522.502 466.532 516.307 466.532 508.917V437.188C466.532 431.101 468.27 425.233 471.748 419.581C475.226 413.93 480.008 410.017 486.094 407.844L585.863 367.415C600.643 361.328 615.75 359.807 631.183 362.85C646.615 365.893 659.548 375.24 669.982 390.89L691.5 424.146C699.76 436.753 712.693 448.382 730.299 459.032C747.906 469.683 766.925 476.53 787.357 479.573C794.312 481.312 800.29 484.79 805.289 490.006C810.288 495.223 812.788 501.309 812.788 508.265C812.788 515.655 810.288 521.85 805.289 526.849C800.29 531.848 794.312 533.696 787.357 532.392C763.882 530.218 741.276 523.806 719.54 513.155C697.804 502.505 679.545 487.833 664.765 469.14L643.898 573.473L677.807 605.425C683.893 611.076 688.675 617.706 692.152 625.314C695.63 632.921 697.369 641.072 697.369 649.767V786.704C697.369 794.094 694.869 800.181 689.87 804.963C684.871 809.744 678.676 812.135 671.286 812.135C663.895 812.135 657.701 809.744 652.701 804.963C647.702 800.181 645.202 794.094 645.202 786.704V662.156L593.688 615.206ZM671.286 336.767C656.94 336.767 644.659 331.659 634.443 321.443C624.227 311.227 619.119 298.946 619.119 284.6C619.119 270.254 624.227 257.973 634.443 247.757C644.659 237.541 656.94 232.433 671.286 232.433C685.197 232.433 697.478 237.541 708.128 247.757C718.779 257.973 724.104 270.254 724.104 284.6C724.104 298.946 718.779 311.227 708.128 321.443C697.478 331.659 685.197 336.767 671.286 336.767Z" fill="#1F1F1F" style="fill:#1F1F1F;fill:color(display-p3 0.1216 0.1216 0.1216);fill-opacity:1;"/>
</svg>
